<?xml version="1.0" encoding="UTF-8" standalone="no"?>
<svg
   xmlns:dc="http://purl.org/dc/elements/1.1/"
   xmlns:cc="http://creativecommons.org/ns#"
   xmlns:rdf="http://www.w3.org/1999/02/22-rdf-syntax-ns#"
   xmlns:svg="http://www.w3.org/2000/svg"
   xmlns="http://www.w3.org/2000/svg"
   xmlns:sodipodi="http://sodipodi.sourceforge.net/DTD/sodipodi-0.dtd"
   xmlns:inkscape="http://www.inkscape.org/namespaces/inkscape"
   sodipodi:docname="scissors.svg"
   inkscape:version="1.0 (6e3e5246a0, 2020-05-07)"
   id="svg1469"
   version="1.1"
   viewBox="0 0 95.908859 101.031"
   height="101.031mm"
   width="95.908859mm">
  <defs
     id="defs1463" />
  <sodipodi:namedview
     inkscape:window-maximized="0"
     inkscape:window-y="119"
     inkscape:window-x="0"
     inkscape:window-height="902"
     inkscape:window-width="1502"
     showgrid="false"
     inkscape:document-rotation="0"
     inkscape:current-layer="layer1"
     inkscape:document-units="mm"
     inkscape:cy="320.38968"
     inkscape:cx="-47.103716"
     inkscape:zoom="0.58553384"
     inkscape:pageshadow="2"
     inkscape:pageopacity="0.0"
     borderopacity="1.0"
     bordercolor="#666666"
     pagecolor="#ffffff"
     id="base" />
  <metadata
     id="metadata1466">
    <rdf:RDF>
      <cc:Work
         rdf:about="">
        <dc:format>image/svg+xml</dc:format>
        <dc:type
           rdf:resource="http://purl.org/dc/dcmitype/StillImage" />
        <dc:title></dc:title>
      </cc:Work>
    </rdf:RDF>
  </metadata>
  <g
     transform="translate(-39.059034,-54.277602)"
     id="layer1"
     inkscape:groupmode="layer"
     inkscape:label="Layer 1">
    <g
       transform="rotate(30,89.6532,104.09069)"
       id="g2076">
      <path
         id="path2043"
         style="fill:#f20d0d;fill-opacity:1;stroke-width:0.500999"
         d="m 90.503573,99.058764 a 27.786769,17.17317 52.237862 0 0 3.504973,32.432746 27.786769,17.17317 52.237862 0 0 30.592664,11.45068 27.786769,17.17317 52.237862 0 0 -3.43992,-32.48378 27.786769,17.17317 52.237862 0 0 -30.592352,-11.450279 27.786769,17.17317 52.237862 0 0 -0.06536,0.05063 z m 6.348967,8.061196 a 17.525728,10.831497 52.237862 0 1 0.09747,-0.0742 17.525728,10.831497 52.237862 0 1 0.09945,-0.0725 17.525728,10.831497 52.237862 0 1 0.100306,-0.0705 17.525728,10.831497 52.237862 0 1 0.10198,-0.0692 17.525728,10.831497 52.237862 0 1 0.103157,-0.0668 17.525728,10.831497 52.237862 0 1 0.104098,-0.0656 17.525728,10.831497 52.237862 0 1 0.105992,-0.0632 17.525728,10.831497 52.237862 0 1 0.106949,-0.0619 17.525728,10.831497 52.237862 0 1 0.108129,-0.0596 17.525728,10.831497 52.237862 0 1 0.109701,-0.0575 17.525728,10.831497 52.237862 0 1 0.110654,-0.0563 17.525728,10.831497 52.237862 0 1 0.112228,-0.0543 17.525728,10.831497 52.237862 0 1 0.113096,-0.0523 17.525728,10.831497 52.237862 0 1 0.114268,-0.05 17.525728,10.831497 52.237862 0 1 0.11594,-0.0486 17.525728,10.831497 52.237862 0 1 0.1168,-0.0467 17.525728,10.831497 52.237862 0 1 0.117657,-0.0447 17.525728,10.831497 52.237862 0 1 0.119239,-0.0427 17.525728,10.831497 52.237862 0 1 0.120096,-0.0407 17.525728,10.831497 52.237862 0 1 0.121363,-0.0391 17.525728,10.831497 52.237862 0 1 0.122536,-0.0367 17.525728,10.831497 52.237862 0 1 0.123801,-0.0351 17.525728,10.831497 52.237862 0 1 0.124252,-0.0328 17.525728,10.831497 52.237862 0 1 0.125925,-0.0315 17.525728,10.831497 52.237862 0 1 0.126373,-0.0293 17.525728,10.831497 52.237862 0 1 0.127955,-0.0272 17.525728,10.831497 52.237862 0 1 0.128498,-0.0257 17.525728,10.831497 52.237862 0 1 0.129667,-0.0233 17.525728,10.831497 52.237862 0 1 0.13053,-0.0214 17.525728,10.831497 52.237862 0 1 0.13139,-0.0194 17.525728,10.831497 52.237862 0 1 0.13265,-0.0178 17.525728,10.831497 52.237862 0 1 0.13341,-0.0151 17.525728,10.831497 52.237862 0 1 0.13437,-0.0139 17.525728,10.831497 52.237862 0 1 0.13522,-0.0119 17.525728,10.831497 52.237862 0 1 0.13599,-0.009 17.525728,10.831497 52.237862 0 1 0.13694,-0.008 17.525728,10.831497 52.237862 0 1 0.1377,-0.005 17.525728,10.831497 52.237862 0 1 0.13865,-0.004 17.525728,10.831497 52.237862 0 1 0.13942,-0.001 17.525728,10.831497 52.237862 0 1 0.13996,9e-5 17.525728,10.831497 52.237862 0 1 0.14081,0.002 17.525728,10.831497 52.237862 0 1 0.14199,0.004 17.525728,10.831497 52.237862 0 1 0.14212,0.006 17.525728,10.831497 52.237862 0 1 0.14267,0.008 17.525728,10.831497 52.237862 0 1 0.14383,0.0102 17.525728,10.831497 52.237862 0 1 0.1447,0.0121 17.525728,10.831497 52.237862 0 1 0.14482,0.014 17.525728,10.831497 52.237862 0 1 0.14569,0.0159 17.525728,10.831497 52.237862 0 1 0.14654,0.0179 17.525728,10.831497 52.237862 0 1 0.14667,0.0197 17.525728,10.831497 52.237862 0 1 0.14753,0.0217 17.525728,10.831497 52.237862 0 1 0.14798,0.0239 17.525728,10.831497 52.237862 0 1 0.14852,0.0255 17.525728,10.831497 52.237862 0 1 0.14897,0.0278 17.525728,10.831497 52.237862 0 1 0.14941,0.03 17.525728,10.831497 52.237862 0 1 0.15037,0.0312 17.525728,10.831497 52.237862 0 1 0.15041,0.0338 17.525728,10.831497 52.237862 0 1 0.15094,0.0354 17.525728,10.831497 52.237862 0 1 0.15108,0.0372 17.525728,10.831497 52.237862 0 1 0.15194,0.0392 17.525728,10.831497 52.237862 0 1 0.15198,0.0418 17.525728,10.831497 52.237862 0 1 0.15261,0.0426 17.525728,10.831497 52.237862 0 1 0.15265,0.0452 17.525728,10.831497 52.237862 0 1 0.15351,0.0471 17.525728,10.831497 52.237862 0 1 0.15332,0.0486 17.525728,10.831497 52.237862 0 1 0.15377,0.0508 17.525728,10.831497 52.237862 0 1 0.15391,0.0527 17.525728,10.831497 52.237862 0 1 0.15403,0.0546 17.525728,10.831497 52.237862 0 1 0.15459,0.0561 17.525728,10.831497 52.237862 0 1 0.15461,0.0587 17.525728,10.831497 52.237862 0 1 0.15485,0.0598 17.525728,10.831497 52.237862 0 1 0.15529,0.0621 17.525728,10.831497 52.237862 0 1 0.15469,0.0639 17.525728,10.831497 52.237862 0 1 0.15524,0.0654 17.525728,10.831497 52.237862 0 1 0.15569,0.0677 17.525728,10.831497 52.237862 0 1 0.15551,0.0691 17.525728,10.831497 52.237862 0 1 0.15522,0.0713 17.525728,10.831497 52.237862 0 1 0.15577,0.0728 17.525728,10.831497 52.237862 0 1 0.15559,0.0743 17.525728,10.831497 52.237862 0 1 0.1553,0.0764 17.525728,10.831497 52.237862 0 1 0.15545,0.0783 17.525728,10.831497 52.237862 0 1 0.15598,0.0799 17.525728,10.831497 52.237862 0 1 0.15539,0.0816 17.525728,10.831497 52.237862 0 1 0.15552,0.0835 17.525728,10.831497 52.237862 0 1 0.15493,0.0853 17.525728,10.831497 52.237862 0 1 0.15547,0.0868 17.525728,10.831497 52.237862 0 1 0.15487,0.0885 17.525728,10.831497 52.237862 0 1 0.15501,0.0904 17.525728,10.831497 52.237862 0 1 0.15483,0.0918 17.525728,10.831497 52.237862 0 1 0.15423,0.0936 17.525728,10.831497 52.237862 0 1 0.15477,0.0952 17.525728,10.831497 52.237862 0 1 0.15377,0.0973 17.525728,10.831497 52.237862 0 1 0.154,0.0984 17.525728,10.831497 52.237862 0 1 0.1534,0.10015 17.525728,10.831497 52.237862 0 1 0.15322,0.1016 17.525728,10.831497 52.237862 0 1 0.15295,0.10377 17.525728,10.831497 52.237862 0 1 0.15285,0.1045 17.525728,10.831497 52.237862 0 1 0.15185,0.10658 17.525728,10.831497 52.237862 0 1 0.15239,0.10813 17.525728,10.831497 52.237862 0 1 0.15107,0.10979 17.525728,10.831497 52.237862 0 1 0.1513,0.11094 17.525728,10.831497 52.237862 0 1 0.1507,0.1127 17.525728,10.831497 52.237862 0 1 0.1498,0.11405 17.525728,10.831497 52.237862 0 1 0.14993,0.11592 17.525728,10.831497 52.237862 0 1 0.14911,0.11655 17.525728,10.831497 52.237862 0 1 0.14883,0.11872 17.525728,10.831497 52.237862 0 1 0.14834,0.11976 17.525728,10.831497 52.237862 0 1 0.14774,0.12153 17.525728,10.831497 52.237862 0 1 0.14683,0.12289 17.525728,10.831497 52.237862 0 1 0.14665,0.12434 17.525728,10.831497 52.237862 0 1 0.14574,0.1257 17.525728,10.831497 52.237862 0 1 0.14523,0.12674 17.525728,10.831497 52.237862 0 1 0.14506,0.12819 17.525728,10.831497 52.237862 0 1 0.14373,0.12986 17.525728,10.831497 52.237862 0 1 0.14324,0.1309 17.525728,10.831497 52.237862 0 1 0.14274,0.13195 17.525728,10.831497 52.237862 0 1 0.14182,0.1333 17.525728,10.831497 52.237862 0 1 0.14092,0.13466 17.525728,10.831497 52.237862 0 1 0.14073,0.13611 17.525728,10.831497 52.237862 0 1 0.13951,0.13706 17.525728,10.831497 52.237862 0 1 0.13858,0.13843 17.525728,10.831497 52.237862 0 1 0.13841,0.13987 17.525728,10.831497 52.237862 0 1 0.13719,0.14082 17.525728,10.831497 52.237862 0 1 0.13596,0.14177 17.525728,10.831497 52.237862 0 1 0.13577,0.14322 17.525728,10.831497 52.237862 0 1 0.13456,0.14416 17.525728,10.831497 52.237862 0 1 0.13373,0.14481 17.525728,10.831497 52.237862 0 1 0.13314,0.14656 17.525728,10.831497 52.237862 0 1 0.13191,0.14753 17.525728,10.831497 52.237862 0 1 0.1307,0.14846 17.525728,10.831497 52.237862 0 1 0.1302,0.1495 17.525728,10.831497 52.237862 0 1 0.12896,0.15045 17.525728,10.831497 52.237862 0 1 0.12815,0.15109 17.525728,10.831497 52.237862 0 1 0.12723,0.15246 17.525728,10.831497 52.237862 0 1 0.12602,0.15339 17.525728,10.831497 52.237862 0 1 0.12478,0.15435 17.525728,10.831497 52.237862 0 1 0.12397,0.15498 17.525728,10.831497 52.237862 0 1 0.12277,0.1559 17.525728,10.831497 52.237862 0 1 0.0744,0.096 17.525728,10.831497 52.237862 0 1 0.12142,0.15761 17.525728,10.831497 52.237862 0 1 0.11985,0.15817 17.525728,10.831497 52.237862 0 1 0.11865,0.1591 17.525728,10.831497 52.237862 0 1 0.11784,0.15973 17.525728,10.831497 52.237862 0 1 0.11662,0.16067 17.525728,10.831497 52.237862 0 1 0.1154,0.16162 17.525728,10.831497 52.237862 0 1 0.11384,0.16217 17.525728,10.831497 52.237862 0 1 0.11302,0.1628 17.525728,10.831497 52.237862 0 1 0.1115,0.16334 17.525728,10.831497 52.237862 0 1 0.11099,0.16437 17.525728,10.831497 52.237862 0 1 0.10913,0.16452 17.525728,10.831497 52.237862 0 1 0.10792,0.16545 17.525728,10.831497 52.237862 0 1 0.10668,0.16641 17.525728,10.831497 52.237862 0 1 0.10555,0.16663 17.525728,10.831497 52.237862 0 1 0.104,0.16719 17.525728,10.831497 52.237862 0 1 0.10287,0.1674 17.525728,10.831497 52.237862 0 1 0.10123,0.16867 17.525728,10.831497 52.237862 0 1 0.10021,0.16815 17.525728,10.831497 52.237862 0 1 0.0985,0.16944 17.525728,10.831497 52.237862 0 1 0.0974,0.16966 17.525728,10.831497 52.237862 0 1 0.0959,0.1702 17.525728,10.831497 52.237862 0 1 0.0948,0.17042 17.525728,10.831497 52.237862 0 1 0.0932,0.17096 17.525728,10.831497 52.237862 0 1 0.0921,0.17119 17.525728,10.831497 52.237862 0 1 0.0905,0.17172 17.525728,10.831497 52.237862 0 1 0.0887,0.17186 17.525728,10.831497 52.237862 0 1 0.0875,0.17209 17.525728,10.831497 52.237862 0 1 0.086,0.17262 17.525728,10.831497 52.237862 0 1 0.0841,0.17276 17.525728,10.831497 52.237862 0 1 0.0834,0.17266 17.525728,10.831497 52.237862 0 1 0.0815,0.17352 17.525728,10.831497 52.237862 0 1 0.08,0.17334 17.525728,10.831497 52.237862 0 1 0.0789,0.17356 17.525728,10.831497 52.237862 0 1 0.077,0.1737 17.525728,10.831497 52.237862 0 1 0.0752,0.17383 17.525728,10.831497 52.237862 0 1 0.074,0.17405 17.525728,10.831497 52.237862 0 1 0.0726,0.17387 17.525728,10.831497 52.237862 0 1 0.0707,0.17399 17.525728,10.831497 52.237862 0 1 0.0689,0.17414 17.525728,10.831497 52.237862 0 1 0.0677,0.17435 17.525728,10.831497 52.237862 0 1 0.066,0.17377 17.525728,10.831497 52.237862 0 1 0.0648,0.17398 17.525728,10.831497 52.237862 0 1 0.0627,0.17372 17.525728,10.831497 52.237862 0 1 0.0611,0.17425 17.525728,10.831497 52.237862 0 1 0.0594,0.17366 17.525728,10.831497 52.237862 0 1 0.0582,0.17388 17.525728,10.831497 52.237862 0 1 0.0564,0.17329 17.525728,10.831497 52.237862 0 1 0.0546,0.17343 17.525728,10.831497 52.237862 0 1 0.0531,0.17324 17.525728,10.831497 52.237862 0 1 0.0514,0.17265 17.525728,10.831497 52.237862 0 1 0.0495,0.17278 17.525728,10.831497 52.237862 0 1 0.0481,0.17259 17.525728,10.831497 52.237862 0 1 0.0463,0.172 17.525728,10.831497 52.237862 0 1 0.0448,0.17182 17.525728,10.831497 52.237862 0 1 0.0427,0.17154 17.525728,10.831497 52.237862 0 1 0.0412,0.17136 17.525728,10.831497 52.237862 0 1 0.0395,0.17077 17.525728,10.831497 52.237862 0 1 0.038,0.17058 17.525728,10.831497 52.237862 0 1 0.0362,0.16999 17.525728,10.831497 52.237862 0 1 0.0345,0.16939 17.525728,10.831497 52.237862 0 1 0.0323,0.16912 17.525728,10.831497 52.237862 0 1 0.0313,0.16862 17.525728,10.831497 52.237862 0 1 0.0295,0.16803 17.525728,10.831497 52.237862 0 1 0.0273,0.16775 17.525728,10.831497 52.237862 0 1 0.0255,0.16715 17.525728,10.831497 52.237862 0 1 0.0242,0.16625 17.525728,10.831497 52.237862 0 1 0.0223,0.16638 17.525728,10.831497 52.237862 0 1 0.0207,0.16506 17.525728,10.831497 52.237862 0 1 0.0185,0.16479 17.525728,10.831497 52.237862 0 1 0.0171,0.16388 17.525728,10.831497 52.237862 0 1 0.0154,0.16328 17.525728,10.831497 52.237862 0 1 0.0136,0.1627 17.525728,10.831497 52.237862 0 1 0.0118,0.1621 17.525728,10.831497 52.237862 0 1 0.0101,0.1615 17.525728,10.831497 52.237862 0 1 0.008,0.16019 17.525728,10.831497 52.237862 0 1 0.006,0.15991 17.525728,10.831497 52.237862 0 1 0.005,0.15901 17.525728,10.831497 52.237862 0 1 0.003,0.158 17.525728,10.831497 52.237862 0 1 0.001,0.15709 17.525728,10.831497 52.237862 0 1 -3.5e-4,0.1565 17.525728,10.831497 52.237862 0 1 -0.002,0.1555 17.525728,10.831497 52.237862 0 1 -0.004,0.15491 17.525728,10.831497 52.237862 0 1 -0.006,0.15359 17.525728,10.831497 52.237862 0 1 -0.007,0.15268 17.525728,10.831497 52.237862 0 1 -0.01,0.15199 17.525728,10.831497 52.237862 0 1 -0.0114,0.15068 17.525728,10.831497 52.237862 0 1 -0.0128,0.14977 17.525728,10.831497 52.237862 0 1 -0.0145,0.14918 17.525728,10.831497 52.237862 0 1 -0.0162,0.14786 17.525728,10.831497 52.237862 0 1 -0.0183,0.14685 17.525728,10.831497 52.237862 0 1 -0.0199,0.14554 17.525728,10.831497 52.237862 0 1 -0.0216,0.14422 17.525728,10.831497 52.237862 0 1 -0.0234,0.14363 17.525728,10.831497 52.237862 0 1 -0.0251,0.14231 17.525728,10.831497 52.237862 0 1 -0.0272,0.14131 17.525728,10.831497 52.237862 0 1 -0.0281,0.14009 17.525728,10.831497 52.237862 0 1 -0.0305,0.13867 17.525728,10.831497 52.237862 0 1 -0.0319,0.13777 17.525728,10.831497 52.237862 0 1 -0.034,0.13676 17.525728,10.831497 52.237862 0 1 -0.0352,0.13513 17.525728,10.831497 52.237862 0 1 -0.0376,0.13372 17.525728,10.831497 52.237862 0 1 -0.039,0.13281 17.525728,10.831497 52.237862 0 1 -0.0406,0.1315 17.525728,10.831497 52.237862 0 1 -0.0423,0.13017 17.525728,10.831497 52.237862 0 1 -0.044,0.12886 17.525728,10.831497 52.237862 0 1 -0.0457,0.12754 17.525728,10.831497 52.237862 0 1 -0.0473,0.12622 17.525728,10.831497 52.237862 0 1 -0.049,0.12491 17.525728,10.831497 52.237862 0 1 -0.051,0.12318 17.525728,10.831497 52.237862 0 1 -0.052,0.12195 17.525728,10.831497 52.237862 0 1 -0.0543,0.12055 17.525728,10.831497 52.237862 0 1 -0.0556,0.11891 17.525728,10.831497 52.237862 0 1 -0.0577,0.1179 17.525728,10.831497 52.237862 0 1 -0.0586,0.11596 17.525728,10.831497 52.237862 0 1 -0.0606,0.11496 17.525728,10.831497 52.237862 0 1 -0.0626,0.11323 17.525728,10.831497 52.237862 0 1 -0.0636,0.112 17.525728,10.831497 52.237862 0 1 -0.0652,0.10996 17.525728,10.831497 52.237862 0 1 -0.0672,0.10896 17.525728,10.831497 52.237862 0 1 -0.0688,0.10692 17.525728,10.831497 52.237862 0 1 -0.0698,0.1057 17.525728,10.831497 52.237862 0 1 -0.0718,0.10396 17.525728,10.831497 52.237862 0 1 -0.0738,0.10224 17.525728,10.831497 52.237862 0 1 -0.0747,0.10102 17.525728,10.831497 52.237862 0 1 -0.0767,0.0993 17.525728,10.831497 52.237862 0 1 -0.078,0.0977 17.525728,10.831497 52.237862 0 1 -0.0792,0.096 17.525728,10.831497 52.237862 0 1 -0.0808,0.094 17.525728,10.831497 52.237862 0 1 -0.0825,0.0927 17.525728,10.831497 52.237862 0 1 -0.0845,0.0909 17.525728,10.831497 52.237862 0 1 -0.085,0.0894 17.525728,10.831497 52.237862 0 1 -0.087,0.0876 17.525728,10.831497 52.237862 0 1 -0.0886,0.0856 17.525728,10.831497 52.237862 0 1 -0.0896,0.0844 17.525728,10.831497 52.237862 0 1 -0.0914,0.0819 17.525728,10.831497 52.237862 0 1 -0.0928,0.081 17.525728,10.831497 52.237862 0 1 -0.094,0.0787 17.525728,10.831497 52.237862 0 1 -0.0956,0.0774 17.525728,10.831497 52.237862 0 1 -0.0589,0.0463 17.525728,10.831497 52.237862 0 1 -0.0979,0.0745 17.525728,10.831497 52.237862 0 1 -0.099,0.0721 17.525728,10.831497 52.237862 0 1 -0.10031,0.0705 17.525728,10.831497 52.237862 0 1 -0.10198,0.0692 17.525728,10.831497 52.237862 0 1 -0.10315,0.0668 17.525728,10.831497 52.237862 0 1 -0.10442,0.0652 17.525728,10.831497 52.237862 0 1 -0.10569,0.0636 17.525728,10.831497 52.237862 0 1 -0.10695,0.0619 17.525728,10.831497 52.237862 0 1 -0.10813,0.0596 17.525728,10.831497 52.237862 0 1 -0.1097,0.0575 17.525728,10.831497 52.237862 0 1 -0.11065,0.0563 17.525728,10.831497 52.237862 0 1 -0.11225,0.0542 17.525728,10.831497 52.237862 0 1 -0.11341,0.0519 17.525728,10.831497 52.237862 0 1 -0.11395,0.0504 17.525728,10.831497 52.237862 0 1 -0.11594,0.0486 17.525728,10.831497 52.237862 0 1 -0.1168,0.0467 17.525728,10.831497 52.237862 0 1 -0.11797,0.0443 17.525728,10.831497 52.237862 0 1 -0.11893,0.0431 17.525728,10.831497 52.237862 0 1 -0.12009,0.0407 17.525728,10.831497 52.237862 0 1 -0.12168,0.0387 17.525728,10.831497 52.237862 0 1 -0.12222,0.0371 17.525728,10.831497 52.237862 0 1 -0.1238,0.0351 17.525728,10.831497 52.237862 0 1 -0.12466,0.0332 17.525728,10.831497 52.237862 0 1 -0.12552,0.0312 17.525728,10.831497 52.237862 0 1 -0.12637,0.0293 17.525728,10.831497 52.237862 0 1 -0.12796,0.0272 17.525728,10.831497 52.237862 0 1 -0.12849,0.0257 17.525728,10.831497 52.237862 0 1 -0.12968,0.0233 17.525728,10.831497 52.237862 0 1 -0.13052,0.0214 17.525728,10.831497 52.237862 0 1 -0.13139,0.0194 17.525728,10.831497 52.237862 0 1 -0.13265,0.0178 17.525728,10.831497 52.237862 0 1 -0.13342,0.0151 17.525728,10.831497 52.237862 0 1 -0.13436,0.0139 17.525728,10.831497 52.237862 0 1 -0.13554,0.0115 17.525728,10.831497 52.237862 0 1 -0.13567,0.01 17.525728,10.831497 52.237862 0 1 -0.13726,0.008 17.525728,10.831497 52.237862 0 1 -0.13738,0.006 17.525728,10.831497 52.237862 0 1 -0.13865,0.004 17.525728,10.831497 52.237862 0 1 -0.13942,0.001 17.525728,10.831497 52.237862 0 1 -0.13996,-9e-5 17.525728,10.831497 52.237862 0 1 -0.14081,-0.002 17.525728,10.831497 52.237862 0 1 -0.14199,-0.004 17.525728,10.831497 52.237862 0 1 -0.14213,-0.006 17.525728,10.831497 52.237862 0 1 -0.14339,-0.008 17.525728,10.831497 52.237862 0 1 -0.1431,-0.0101 17.525728,10.831497 52.237862 0 1 -0.1447,-0.0121 17.525728,10.831497 52.237862 0 1 -0.14482,-0.014 17.525728,10.831497 52.237862 0 1 -0.14569,-0.0159 17.525728,10.831497 52.237862 0 1 -0.14654,-0.0179 17.525728,10.831497 52.237862 0 1 -0.14667,-0.0197 17.525728,10.831497 52.237862 0 1 -0.14753,-0.0217 17.525728,10.831497 52.237862 0 1 -0.14798,-0.0239 17.525728,10.831497 52.237862 0 1 -0.14884,-0.0259 17.525728,10.831497 52.237862 0 1 -0.14896,-0.0278 17.525728,10.831497 52.237862 0 1 -0.14951,-0.0293 17.525728,10.831497 52.237862 0 1 -0.14996,-0.0316 17.525728,10.831497 52.237862 0 1 -0.15041,-0.0338 17.525728,10.831497 52.237862 0 1 -0.15095,-0.0354 17.525728,10.831497 52.237862 0 1 -0.15107,-0.0372 17.525728,10.831497 52.237862 0 1 -0.15194,-0.0392 17.525728,10.831497 52.237862 0 1 -0.15239,-0.0414 17.525728,10.831497 52.237862 0 1 -0.1522,-0.0429 17.525728,10.831497 52.237862 0 1 -0.15265,-0.0452 17.525728,10.831497 52.237862 0 1 -0.15351,-0.0471 17.525728,10.831497 52.237862 0 1 -0.15332,-0.0486 17.525728,10.831497 52.237862 0 1 -0.15378,-0.0508 17.525728,10.831497 52.237862 0 1 -0.1539,-0.0527 17.525728,10.831497 52.237862 0 1 -0.15404,-0.0546 17.525728,10.831497 52.237862 0 1 -0.15458,-0.0561 17.525728,10.831497 52.237862 0 1 -0.15461,-0.0587 17.525728,10.831497 52.237862 0 1 -0.15485,-0.0598 17.525728,10.831497 52.237862 0 1 -0.15529,-0.0621 17.525728,10.831497 52.237862 0 1 -0.15469,-0.0639 17.525728,10.831497 52.237862 0 1 -0.15524,-0.0654 17.525728,10.831497 52.237862 0 1 -0.15569,-0.0677 17.525728,10.831497 52.237862 0 1 -0.15551,-0.0691 17.525728,10.831497 52.237862 0 1 -0.15522,-0.0713 17.525728,10.831497 52.237862 0 1 -0.15578,-0.0728 17.525728,10.831497 52.237862 0 1 -0.15558,-0.0743 17.525728,10.831497 52.237862 0 1 -0.15531,-0.0764 17.525728,10.831497 52.237862 0 1 -0.15585,-0.078 17.525728,10.831497 52.237862 0 1 -0.15557,-0.0802 17.525728,10.831497 52.237862 0 1 -0.15539,-0.0816 17.525728,10.831497 52.237862 0 1 -0.15552,-0.0835 17.525728,10.831497 52.237862 0 1 -0.15493,-0.0852 17.525728,10.831497 52.237862 0 1 -0.15547,-0.0868 17.525728,10.831497 52.237862 0 1 -0.15487,-0.0885 17.525728,10.831497 52.237862 0 1 -0.15501,-0.0904 17.525728,10.831497 52.237862 0 1 -0.15483,-0.0919 17.525728,10.831497 52.237862 0 1 -0.15423,-0.0936 17.525728,10.831497 52.237862 0 1 -0.15477,-0.0952 17.525728,10.831497 52.237862 0 1 -0.15378,-0.0973 17.525728,10.831497 52.237862 0 1 -0.15399,-0.0984 17.525728,10.831497 52.237862 0 1 -0.15341,-0.10015 17.525728,10.831497 52.237862 0 1 -0.15321,-0.1016 17.525728,10.831497 52.237862 0 1 -0.15335,-0.10345 17.525728,10.831497 52.237862 0 1 -0.15245,-0.10482 17.525728,10.831497 52.237862 0 1 -0.15185,-0.10658 17.525728,10.831497 52.237862 0 1 -0.15239,-0.10813 17.525728,10.831497 52.237862 0 1 -0.15148,-0.10948 17.525728,10.831497 52.237862 0 1 -0.15089,-0.11125 17.525728,10.831497 52.237862 0 1 -0.1507,-0.1127 17.525728,10.831497 52.237862 0 1 -0.1498,-0.11405 17.525728,10.831497 52.237862 0 1 -0.14993,-0.11592 17.525728,10.831497 52.237862 0 1 -0.14942,-0.11695 17.525728,10.831497 52.237862 0 1 -0.14852,-0.11832 17.525728,10.831497 52.237862 0 1 -0.14834,-0.11976 17.525728,10.831497 52.237862 0 1 -0.14774,-0.12153 17.525728,10.831497 52.237862 0 1 -0.14683,-0.12289 17.525728,10.831497 52.237862 0 1 -0.14665,-0.12434 17.525728,10.831497 52.237862 0 1 -0.14574,-0.1257 17.525728,10.831497 52.237862 0 1 -0.14523,-0.12673 17.525728,10.831497 52.237862 0 1 -0.14506,-0.12819 17.525728,10.831497 52.237862 0 1 -0.14374,-0.12987 17.525728,10.831497 52.237862 0 1 -0.14323,-0.1309 17.525728,10.831497 52.237862 0 1 -0.14274,-0.13194 17.525728,10.831497 52.237862 0 1 -0.14182,-0.13331 17.525728,10.831497 52.237862 0 1 -0.14123,-0.13507 17.525728,10.831497 52.237862 0 1 -0.14042,-0.1357 17.525728,10.831497 52.237862 0 1 -0.13951,-0.13706 17.525728,10.831497 52.237862 0 1 -0.1389,-0.13884 17.525728,10.831497 52.237862 0 1 -0.13809,-0.13946 17.525728,10.831497 52.237862 0 1 -0.13719,-0.14082 17.525728,10.831497 52.237862 0 1 -0.13638,-0.14145 17.525728,10.831497 52.237862 0 1 -0.13537,-0.14353 17.525728,10.831497 52.237862 0 1 -0.13496,-0.14385 17.525728,10.831497 52.237862 0 1 -0.13365,-0.14552 17.525728,10.831497 52.237862 0 1 -0.13282,-0.14616 17.525728,10.831497 52.237862 0 1 -0.13191,-0.14752 17.525728,10.831497 52.237862 0 1 -0.1311,-0.14815 17.525728,10.831497 52.237862 0 1 -0.129779,-0.14983 17.525728,10.831497 52.237862 0 1 -0.128964,-0.15045 17.525728,10.831497 52.237862 0 1 -0.128149,-0.15109 17.525728,10.831497 52.237862 0 1 -0.12723,-0.15246 17.525728,10.831497 52.237862 0 1 -0.126017,-0.15339 17.525728,10.831497 52.237862 0 1 -0.124783,-0.15435 17.525728,10.831497 52.237862 0 1 -0.123968,-0.15498 17.525728,10.831497 52.237862 0 1 -0.122775,-0.1559 17.525728,10.831497 52.237862 0 1 -0.07468,-0.0964 17.525728,10.831497 52.237862 0 1 -0.121102,-0.1572 17.525728,10.831497 52.237862 0 1 -0.119846,-0.15817 17.525728,10.831497 52.237862 0 1 -0.118655,-0.1591 17.525728,10.831497 52.237862 0 1 -0.117839,-0.15973 17.525728,10.831497 52.237862 0 1 -0.116625,-0.16066 17.525728,10.831497 52.237862 0 1 -0.115392,-0.16163 17.525728,10.831497 52.237862 0 1 -0.113841,-0.16217 17.525728,10.831497 52.237862 0 1 -0.113026,-0.1628 17.525728,10.831497 52.237862 0 1 -0.11181,-0.16375 17.525728,10.831497 52.237862 0 1 -0.110681,-0.16396 17.525728,10.831497 52.237862 0 1 -0.109129,-0.16452 17.525728,10.831497 52.237862 0 1 -0.107916,-0.16545 17.525728,10.831497 52.237862 0 1 -0.106682,-0.16641 17.525728,10.831497 52.237862 0 1 -0.10555,-0.16663 17.525728,10.831497 52.237862 0 1 -0.103998,-0.16718 17.525728,10.831497 52.237862 0 1 -0.102867,-0.16741 17.525728,10.831497 52.237862 0 1 -0.101235,-0.16866 17.525728,10.831497 52.237862 0 1 -0.100501,-0.16859 17.525728,10.831497 52.237862 0 1 -0.09826,-0.16901 17.525728,10.831497 52.237862 0 1 -0.09743,-0.16966 17.525728,10.831497 52.237862 0 1 -0.09629,-0.16988 17.525728,10.831497 52.237862 0 1 -0.09434,-0.17074 17.525728,10.831497 52.237862 0 1 -0.09321,-0.17096 17.525728,10.831497 52.237862 0 1 -0.09208,-0.17118 17.525728,10.831497 52.237862 0 1 -0.09054,-0.17173 17.525728,10.831497 52.237862 0 1 -0.08868,-0.17186 17.525728,10.831497 52.237862 0 1 -0.08754,-0.17209 17.525728,10.831497 52.237862 0 1 -0.086,-0.17262 17.525728,10.831497 52.237862 0 1 -0.08487,-0.17285 17.525728,10.831497 52.237862 0 1 -0.08301,-0.17298 17.525728,10.831497 52.237862 0 1 -0.08115,-0.17311 17.525728,10.831497 52.237862 0 1 -0.08002,-0.17334 17.525728,10.831497 52.237862 0 1 -0.07888,-0.17356 17.525728,10.831497 52.237862 0 1 -0.07703,-0.1737 17.525728,10.831497 52.237862 0 1 -0.07517,-0.17383 17.525728,10.831497 52.237862 0 1 -0.07403,-0.17405 17.525728,10.831497 52.237862 0 1 -0.07258,-0.17386 17.525728,10.831497 52.237862 0 1 -0.07072,-0.174 17.525728,10.831497 52.237862 0 1 -0.06887,-0.17413 17.525728,10.831497 52.237862 0 1 -0.06773,-0.17436 17.525728,10.831497 52.237862 0 1 -0.06597,-0.17376 17.525728,10.831497 52.237862 0 1 -0.06483,-0.17399 17.525728,10.831497 52.237862 0 1 -0.06266,-0.17372 17.525728,10.831497 52.237862 0 1 -0.06112,-0.17425 17.525728,10.831497 52.237862 0 1 -0.05935,-0.17366 17.525728,10.831497 52.237862 0 1 -0.05821,-0.17388 17.525728,10.831497 52.237862 0 1 -0.05645,-0.17329 17.525728,10.831497 52.237862 0 1 -0.05459,-0.17343 17.525728,10.831497 52.237862 0 1 -0.05314,-0.17324 17.525728,10.831497 52.237862 0 1 -0.05137,-0.17264 17.525728,10.831497 52.237862 0 1 -0.04951,-0.17278 17.525728,10.831497 52.237862 0 1 -0.04807,-0.1726 17.525728,10.831497 52.237862 0 1 -0.0463,-0.172 17.525728,10.831497 52.237862 0 1 -0.04485,-0.17182 17.525728,10.831497 52.237862 0 1 -0.04267,-0.17154 17.525728,10.831497 52.237862 0 1 -0.04123,-0.17136 17.525728,10.831497 52.237862 0 1 -0.03946,-0.17077 17.525728,10.831497 52.237862 0 1 -0.03801,-0.17058 17.525728,10.831497 52.237862 0 1 -0.03624,-0.16998 17.525728,10.831497 52.237862 0 1 -0.03448,-0.1694 17.525728,10.831497 52.237862 0 1 -0.03302,-0.16921 17.525728,10.831497 52.237862 0 1 -0.03053,-0.16853 17.525728,10.831497 52.237862 0 1 -0.02949,-0.16802 17.525728,10.831497 52.237862 0 1 -0.02732,-0.16775 17.525728,10.831497 52.237862 0 1 -0.02555,-0.16716 17.525728,10.831497 52.237862 0 1 -0.02451,-0.16666 17.525728,10.831497 52.237862 0 1 -0.02202,-0.16597 17.525728,10.831497 52.237862 0 1 -0.02066,-0.16506 17.525728,10.831497 52.237862 0 1 -0.01848,-0.16479 17.525728,10.831497 52.237862 0 1 -0.01713,-0.16388 17.525728,10.831497 52.237862 0 1 -0.01568,-0.16369 17.525728,10.831497 52.237862 0 1 -0.01328,-0.16228 17.525728,10.831497 52.237862 0 1 -0.01183,-0.1621 17.525728,10.831497 52.237862 0 1 -0.01006,-0.16151 17.525728,10.831497 52.237862 0 1 -0.0084,-0.16019 17.525728,10.831497 52.237862 0 1 -0.0062,-0.15991 17.525728,10.831497 52.237862 0 1 -0.0049,-0.15901 17.525728,10.831497 52.237862 0 1 -0.0028,-0.158 17.525728,10.831497 52.237862 0 1 -0.0014,-0.15709 17.525728,10.831497 52.237862 0 1 3.54e-4,-0.1565 17.525728,10.831497 52.237862 0 1 0.0024,-0.1555 17.525728,10.831497 52.237862 0 1 0.0042,-0.15491 17.525728,10.831497 52.237862 0 1 0.0059,-0.15359 17.525728,10.831497 52.237862 0 1 0.0072,-0.15268 17.525728,10.831497 52.237862 0 1 0.0097,-0.15199 17.525728,10.831497 52.237862 0 1 0.01068,-0.15077 17.525728,10.831497 52.237862 0 1 0.01317,-0.15009 17.525728,10.831497 52.237862 0 1 0.01484,-0.14877 17.525728,10.831497 52.237862 0 1 0.0162,-0.14785 17.525728,10.831497 52.237862 0 1 0.01787,-0.14654 17.525728,10.831497 52.237862 0 1 0.02037,-0.14586 17.525728,10.831497 52.237862 0 1 0.02132,-0.14463 17.525728,10.831497 52.237862 0 1 0.02371,-0.14322 17.525728,10.831497 52.237862 0 1 0.02507,-0.14231 17.525728,10.831497 52.237862 0 1 0.02643,-0.1414 17.525728,10.831497 52.237862 0 1 0.02883,-0.14 17.525728,10.831497 52.237862 0 1 0.0305,-0.13867 17.525728,10.831497 52.237862 0 1 0.03186,-0.13777 17.525728,10.831497 52.237862 0 1 0.03394,-0.13676 17.525728,10.831497 52.237862 0 1 0.03521,-0.13513 17.525728,10.831497 52.237862 0 1 0.0373,-0.13413 17.525728,10.831497 52.237862 0 1 0.03897,-0.13281 17.525728,10.831497 52.237862 0 1 0.04096,-0.13109 17.525728,10.831497 52.237862 0 1 0.04231,-0.13017 17.525728,10.831497 52.237862 0 1 0.04399,-0.12886 17.525728,10.831497 52.237862 0 1 0.04566,-0.12754 17.525728,10.831497 52.237862 0 1 0.04734,-0.12622 17.525728,10.831497 52.237862 0 1 0.04901,-0.12491 17.525728,10.831497 52.237862 0 1 0.05101,-0.12318 17.525728,10.831497 52.237862 0 1 0.05195,-0.12195 17.525728,10.831497 52.237862 0 1 0.05435,-0.12054 17.525728,10.831497 52.237862 0 1 0.05562,-0.11891 17.525728,10.831497 52.237862 0 1 0.05729,-0.11759 17.525728,10.831497 52.237862 0 1 0.05897,-0.11628 17.525728,10.831497 52.237862 0 1 0.06064,-0.11496 17.525728,10.831497 52.237862 0 1 0.06232,-0.11364 17.525728,10.831497 52.237862 0 1 0.0639,-0.11159 17.525728,10.831497 52.237862 0 1 0.06516,-0.10996 17.525728,10.831497 52.237862 0 1 0.06725,-0.10896 17.525728,10.831497 52.237862 0 1 0.06883,-0.10692 17.525728,10.831497 52.237862 0 1 0.06978,-0.10569 17.525728,10.831497 52.237862 0 1 0.07177,-0.10397 17.525728,10.831497 52.237862 0 1 0.07344,-0.10265 17.525728,10.831497 52.237862 0 1 0.07503,-0.10061 17.525728,10.831497 52.237862 0 1 0.0767,-0.0993 17.525728,10.831497 52.237862 0 1 0.07756,-0.0973 17.525728,10.831497 52.237862 0 1 0.07964,-0.0963 17.525728,10.831497 52.237862 0 1 0.08082,-0.094 17.525728,10.831497 52.237862 0 1 0.0825,-0.0927 17.525728,10.831497 52.237862 0 1 0.08417,-0.0913 17.525728,10.831497 52.237862 0 1 0.08533,-0.089 17.525728,10.831497 52.237862 0 1 0.087,-0.0877 17.525728,10.831497 52.237862 0 1 0.08859,-0.0856 17.525728,10.831497 52.237862 0 1 0.08955,-0.0844 17.525728,10.831497 52.237862 0 1 0.09144,-0.082 17.525728,10.831497 52.237862 0 1 0.09279,-0.081 17.525728,10.831497 52.237862 0 1 0.09397,-0.0787 17.525728,10.831497 52.237862 0 1 0.09561,-0.0774 17.525728,10.831497 52.237862 0 1 0.05891,-0.0463 z" />
      <path
         d="m 88.372835,98.939924 a 17.17317,27.786769 37.237863 0 0 -30.420474,11.779756 17.17317,27.786769 37.237863 0 0 -3.142545,32.5139 17.17317,27.786769 37.237863 0 0 30.486611,-11.73013 17.17317,27.786769 37.237863 0 0 3.142234,-32.513493 17.17317,27.786769 37.237863 0 0 -0.06583,-0.05003 z m -6.143288,8.219026 a 10.831497,17.525728 37.237863 0 1 0.09686,0.075 10.831497,17.525728 37.237863 0 1 0.09572,0.0773 10.831497,17.525728 37.237863 0 1 0.09406,0.0786 10.831497,17.525728 37.237863 0 1 0.09323,0.0806 10.831497,17.525728 37.237863 0 1 0.09124,0.0824 10.831497,17.525728 37.237863 0 1 0.09032,0.0836 10.831497,17.525728 37.237863 0 1 0.08844,0.086 10.831497,17.525728 37.237863 0 1 0.0875,0.0873 10.831497,17.525728 37.237863 0 1 0.08552,0.089 10.831497,17.525728 37.237863 0 1 0.08396,0.0911 10.831497,17.525728 37.237863 0 1 0.08302,0.0923 10.831497,17.525728 37.237863 0 1 0.08147,0.0944 10.831497,17.525728 37.237863 0 1 0.0798,0.0957 10.831497,17.525728 37.237863 0 1 0.07782,0.0975 10.831497,17.525728 37.237863 0 1 0.07698,0.0994 10.831497,17.525728 37.237863 0 1 0.07532,0.10074 10.831497,17.525728 37.237863 0 1 0.07366,0.10207 10.831497,17.525728 37.237863 0 1 0.07209,0.10413 10.831497,17.525728 37.237863 0 1 0.07043,0.10546 10.831497,17.525728 37.237863 0 1 0.06918,0.10711 10.831497,17.525728 37.237863 0 1 0.06721,0.10885 10.831497,17.525728 37.237863 0 1 0.06595,0.11049 10.831497,17.525728 37.237863 0 1 0.06388,0.11152 10.831497,17.525728 37.237863 0 1 0.06304,0.11348 10.831497,17.525728 37.237863 0 1 0.06097,0.11449 10.831497,17.525728 37.237863 0 1 0.0594,0.11656 10.831497,17.525728 37.237863 0 1 0.05805,0.11747 10.831497,17.525728 37.237863 0 1 0.05608,0.11922 10.831497,17.525728 37.237863 0 1 0.05442,0.12055 10.831497,17.525728 37.237863 0 1 0.05276,0.12188 10.831497,17.525728 37.237863 0 1 0.0515,0.12353 10.831497,17.525728 37.237863 0 1 0.04912,0.12497 10.831497,17.525728 37.237863 0 1 0.04818,0.12619 10.831497,17.525728 37.237863 0 1 0.04652,0.12753 10.831497,17.525728 37.237863 0 1 0.04413,0.12896 10.831497,17.525728 37.237863 0 1 0.04319,0.1302 10.831497,17.525728 37.237863 0 1 0.0408,0.13162 10.831497,17.525728 37.237863 0 1 0.03987,0.13286 10.831497,17.525728 37.237863 0 1 0.03748,0.1343 10.831497,17.525728 37.237863 0 1 0.03613,0.13521 10.831497,17.525728 37.237863 0 1 0.03447,0.13654 10.831497,17.525728 37.237863 0 1 0.03249,0.1383 10.831497,17.525728 37.237863 0 1 0.03074,0.13889 10.831497,17.525728 37.237863 0 1 0.02938,0.13983 10.831497,17.525728 37.237863 0 1 0.02741,0.14156 10.831497,17.525728 37.237863 0 1 0.02575,0.1429 10.831497,17.525728 37.237863 0 1 0.02398,0.14351 10.831497,17.525728 37.237863 0 1 0.02233,0.14484 10.831497,17.525728 37.237863 0 1 0.02066,0.14617 10.831497,17.525728 37.237863 0 1 0.0189,0.14678 10.831497,17.525728 37.237863 0 1 0.01724,0.14812 10.831497,17.525728 37.237863 0 1 0.01517,0.14913 10.831497,17.525728 37.237863 0 1 0.01382,0.15006 10.831497,17.525728 37.237863 0 1 0.01174,0.15108 10.831497,17.525728 37.237863 0 1 0.0097,0.15209 10.831497,17.525728 37.237863 0 1 0.0087,0.15334 10.831497,17.525728 37.237863 0 1 0.0062,0.15404 10.831497,17.525728 37.237863 0 1 0.0049,0.15496 10.831497,17.525728 37.237863 0 1 0.0031,0.15556 10.831497,17.525728 37.237863 0 1 0.0015,0.15691 10.831497,17.525728 37.237863 0 1 -10e-4,0.15761 10.831497,17.525728 37.237863 0 1 -0.0016,0.15843 10.831497,17.525728 37.237863 0 1 -0.0041,0.15914 10.831497,17.525728 37.237863 0 1 -0.0058,0.16047 10.831497,17.525728 37.237863 0 1 -0.0072,0.16067 10.831497,17.525728 37.237863 0 1 -0.0093,0.1617 10.831497,17.525728 37.237863 0 1 -0.01107,0.16229 10.831497,17.525728 37.237863 0 1 -0.01283,0.16291 10.831497,17.525728 37.237863 0 1 -0.01418,0.16384 10.831497,17.525728 37.237863 0 1 -0.01666,0.16453 10.831497,17.525728 37.237863 0 1 -0.0177,0.16505 10.831497,17.525728 37.237863 0 1 -0.01977,0.16607 10.831497,17.525728 37.237863 0 1 -0.02163,0.16595 10.831497,17.525728 37.237863 0 1 -0.02298,0.16687 10.831497,17.525728 37.237863 0 1 -0.02506,0.1679 10.831497,17.525728 37.237863 0 1 -0.02651,0.16809 10.831497,17.525728 37.237863 0 1 -0.02868,0.16839 10.831497,17.525728 37.237863 0 1 -0.03002,0.16931 10.831497,17.525728 37.237863 0 1 -0.03147,0.1695 10.831497,17.525728 37.237863 0 1 -0.03365,0.1698 10.831497,17.525728 37.237863 0 1 -0.03541,0.17042 10.831497,17.525728 37.237863 0 1 -0.03676,0.17133 10.831497,17.525728 37.237863 0 1 -0.03862,0.17122 10.831497,17.525728 37.237863 0 1 -0.04038,0.17182 10.831497,17.525728 37.237863 0 1 -0.04224,0.17172 10.831497,17.525728 37.237863 0 1 -0.04359,0.17263 10.831497,17.525728 37.237863 0 1 -0.04545,0.17252 10.831497,17.525728 37.237863 0 1 -0.04721,0.17312 10.831497,17.525728 37.237863 0 1 -0.04866,0.17333 10.831497,17.525728 37.237863 0 1 -0.05052,0.17321 10.831497,17.525728 37.237863 0 1 -0.05187,0.17413 10.831497,17.525728 37.237863 0 1 -0.05414,0.1737 10.831497,17.525728 37.237863 0 1 -0.05517,0.17421 10.831497,17.525728 37.237863 0 1 -0.05703,0.1741 10.831497,17.525728 37.237863 0 1 -0.05848,0.17429 10.831497,17.525728 37.237863 0 1 -0.06065,0.17459 10.831497,17.525728 37.237863 0 1 -0.06138,0.17469 10.831497,17.525728 37.237863 0 1 -0.06365,0.17426 10.831497,17.525728 37.237863 0 1 -0.065,0.17519 10.831497,17.525728 37.237863 0 1 -0.06696,0.17434 10.831497,17.525728 37.237863 0 1 -0.06799,0.17485 10.831497,17.525728 37.237863 0 1 -0.06985,0.17474 10.831497,17.525728 37.237863 0 1 -0.0714,0.17421 10.831497,17.525728 37.237863 0 1 -0.07316,0.17482 10.831497,17.525728 37.237863 0 1 -0.07398,0.1742 10.831497,17.525728 37.237863 0 1 -0.07615,0.17449 10.831497,17.525728 37.237863 0 1 -0.07729,0.17428 10.831497,17.525728 37.237863 0 1 -0.07915,0.17416 10.831497,17.525728 37.237863 0 1 -0.0807,0.17363 10.831497,17.525728 37.237863 0 1 -0.08215,0.17383 10.831497,17.525728 37.237863 0 1 -0.08369,0.17331 10.831497,17.525728 37.237863 0 1 -0.08483,0.17309 10.831497,17.525728 37.237863 0 1 -0.08628,0.17329 10.831497,17.525728 37.237863 0 1 -0.08823,0.17245 10.831497,17.525728 37.237863 0 1 -0.08937,0.17224 10.831497,17.525728 37.237863 0 1 -0.09051,0.17202 10.831497,17.525728 37.237863 0 1 -0.09205,0.17149 10.831497,17.525728 37.237863 0 1 -0.0936,0.17097 10.831497,17.525728 37.237863 0 1 -0.09505,0.17117 10.831497,17.525728 37.237863 0 1 -0.09628,0.17022 10.831497,17.525728 37.237863 0 1 -0.09784,0.16969 10.831497,17.525728 37.237863 0 1 -0.09929,0.16989 10.831497,17.525728 37.237863 0 1 -0.10051,0.16897 10.831497,17.525728 37.237863 0 1 -0.101752,0.16802 10.831497,17.525728 37.237863 0 1 -0.103198,0.16821 10.831497,17.525728 37.237863 0 1 -0.104421,0.16729 10.831497,17.525728 37.237863 0 1 -0.105264,0.16665 10.831497,17.525728 37.237863 0 1 -0.10711,0.16654 10.831497,17.525728 37.237863 0 1 -0.108354,0.1656 10.831497,17.525728 37.237863 0 1 -0.109575,0.16466 10.831497,17.525728 37.237863 0 1 -0.110709,0.16446 10.831497,17.525728 37.237863 0 1 -0.111951,0.16351 10.831497,17.525728 37.237863 0 1 -0.112774,0.16289 10.831497,17.525728 37.237863 0 1 -0.114329,0.16235 10.831497,17.525728 37.237863 0 1 -0.115551,0.16142 10.831497,17.525728 37.237863 0 1 -0.116794,0.16048 10.831497,17.525728 37.237863 0 1 -0.117615,0.15986 10.831497,17.525728 37.237863 0 1 -0.118815,0.15894 10.831497,17.525728 37.237863 0 1 -0.07349,0.0967 10.831497,17.525728 37.237863 0 1 -0.120813,0.15808 10.831497,17.525728 37.237863 0 1 -0.121765,0.1567 10.831497,17.525728 37.237863 0 1 -0.122965,0.15579 10.831497,17.525728 37.237863 0 1 -0.123787,0.15516 10.831497,17.525728 37.237863 0 1 -0.125009,0.15424 10.831497,17.525728 37.237863 0 1 -0.126251,0.15329 10.831497,17.525728 37.237863 0 1 -0.127182,0.15193 10.831497,17.525728 37.237863 0 1 -0.128002,0.15131 10.831497,17.525728 37.237863 0 1 -0.128913,0.14997 10.831497,17.525728 37.237863 0 1 -0.130045,0.14976 10.831497,17.525728 37.237863 0 1 -0.130664,0.14799 10.831497,17.525728 37.237863 0 1 -0.131885,0.14706 10.831497,17.525728 37.237863 0 1 -0.133128,0.14612 10.831497,17.525728 37.237863 0 1 -0.133637,0.14508 10.831497,17.525728 37.237863 0 1 -0.134568,0.14372 10.831497,17.525728 37.237863 0 1 -0.135076,0.14269 10.831497,17.525728 37.237863 0 1 -0.136719,0.14144 10.831497,17.525728 37.237863 0 1 -0.136492,0.14032 10.831497,17.525728 37.237863 0 1 -0.138159,0.13905 10.831497,17.525728 37.237863 0 1 -0.13866,0.13801 10.831497,17.525728 37.237863 0 1 -0.13958,0.13667 10.831497,17.525728 37.237863 0 1 -0.140091,0.13563 10.831497,17.525728 37.237863 0 1 -0.14101,0.13429 10.831497,17.525728 37.237863 0 1 -0.141523,0.13324 10.831497,17.525728 37.237863 0 1 -0.142442,0.1319 10.831497,17.525728 37.237863 0 1 -0.143052,0.13013 10.831497,17.525728 37.237863 0 1 -0.143563,0.1291 10.831497,17.525728 37.237863 0 1 -0.144483,0.12775 10.831497,17.525728 37.237863 0 1 -0.145094,0.12599 10.831497,17.525728 37.237863 0 1 -0.145192,0.12526 10.831497,17.525728 37.237863 0 1 -0.146524,0.12361 10.831497,17.525728 37.237863 0 1 -0.146721,0.12215 10.831497,17.525728 37.237863 0 1 -0.147232,0.12111 10.831497,17.525728 37.237863 0 1 -0.147841,0.11936 10.831497,17.525728 37.237863 0 1 -0.148448,0.1176 10.831497,17.525728 37.237863 0 1 -0.148962,0.11656 10.831497,17.525728 37.237863 0 1 -0.149156,0.11511 10.831497,17.525728 37.237863 0 1 -0.149766,0.11334 10.831497,17.525728 37.237863 0 1 -0.150374,0.11159 10.831497,17.525728 37.237863 0 1 -0.150886,0.11055 10.831497,17.525728 37.237863 0 1 -0.150768,0.1087 10.831497,17.525728 37.237863 0 1 -0.151281,0.10765 10.831497,17.525728 37.237863 0 1 -0.151574,0.10548 10.831497,17.525728 37.237863 0 1 -0.152499,0.10413 10.831497,17.525728 37.237863 0 1 -0.152382,0.10228 10.831497,17.525728 37.237863 0 1 -0.152892,0.10123 10.831497,17.525728 37.237863 0 1 -0.152775,0.0994 10.831497,17.525728 37.237863 0 1 -0.153387,0.0976 10.831497,17.525728 37.237863 0 1 -0.153582,0.0962 10.831497,17.525728 37.237863 0 1 -0.15347,0.0943 10.831497,17.525728 37.237863 0 1 -0.154076,0.0926 10.831497,17.525728 37.237863 0 1 -0.154274,0.0911 10.831497,17.525728 37.237863 0 1 -0.154157,0.0892 10.831497,17.525728 37.237863 0 1 -0.154356,0.0878 10.831497,17.525728 37.237863 0 1 -0.154654,0.0856 10.831497,17.525728 37.237863 0 1 -0.154848,0.0842 10.831497,17.525728 37.237863 0 1 -0.154735,0.0823 10.831497,17.525728 37.237863 0 1 -0.154932,0.0809 10.831497,17.525728 37.237863 0 1 -0.154816,0.079 10.831497,17.525728 37.237863 0 1 -0.154701,0.0771 10.831497,17.525728 37.237863 0 1 -0.154997,0.075 10.831497,17.525728 37.237863 0 1 -0.154782,0.0738 10.831497,17.525728 37.237863 0 1 -0.154669,0.072 10.831497,17.525728 37.237863 0 1 -0.154963,0.0698 10.831497,17.525728 37.237863 0 1 -0.154849,0.0679 10.831497,17.525728 37.237863 0 1 -0.154323,0.0664 10.831497,17.525728 37.237863 0 1 -0.15493,0.0646 10.831497,17.525728 37.237863 0 1 -0.154091,0.0627 10.831497,17.525728 37.237863 0 1 -0.15439,0.0605 10.831497,17.525728 37.237863 0 1 -0.153859,0.059 10.831497,17.525728 37.237863 0 1 -0.153745,0.0571 10.831497,17.525728 37.237863 0 1 -0.153631,0.0552 10.831497,17.525728 37.237863 0 1 -0.153515,0.0534 10.831497,17.525728 37.237863 0 1 -0.153399,0.0515 10.831497,17.525728 37.237863 0 1 -0.152561,0.0496 10.831497,17.525728 37.237863 0 1 -0.152856,0.0474 10.831497,17.525728 37.237863 0 1 -0.152329,0.0458 10.831497,17.525728 37.237863 0 1 -0.151904,0.0436 10.831497,17.525728 37.237863 0 1 -0.151373,0.042 10.831497,17.525728 37.237863 0 1 -0.151259,0.0402 10.831497,17.525728 37.237863 0 1 -0.150832,0.0379 10.831497,17.525728 37.237863 0 1 -0.150716,0.036 10.831497,17.525728 37.237863 0 1 -0.149877,0.0341 10.831497,17.525728 37.237863 0 1 -0.14935,0.0325 10.831497,17.525728 37.237863 0 1 -0.149334,0.0299 10.831497,17.525728 37.237863 0 1 -0.148493,0.028 10.831497,17.525728 37.237863 0 1 -0.147969,0.0264 10.831497,17.525728 37.237863 0 1 -0.147852,0.0246 10.831497,17.525728 37.237863 0 1 -0.147012,0.0226 10.831497,17.525728 37.237863 0 1 -0.146586,0.0203 10.831497,17.525728 37.237863 0 1 -0.145744,0.0184 10.831497,17.525728 37.237863 0 1 -0.144907,0.0164 10.831497,17.525728 37.237863 0 1 -0.144789,0.0146 10.831497,17.525728 37.237863 0 1 -0.143953,0.0126 10.831497,17.525728 37.237863 0 1 -0.143523,0.0103 10.831497,17.525728 37.237863 0 1 -0.142583,0.009 10.831497,17.525728 37.237863 0 1 -0.141845,0.006 10.831497,17.525728 37.237863 0 1 -0.141319,0.005 10.831497,17.525728 37.237863 0 1 -0.14089,0.003 10.831497,17.525728 37.237863 0 1 -0.139638,9.7e-4 10.831497,17.525728 37.237863 0 1 -0.138899,-0.002 10.831497,17.525728 37.237863 0 1 -0.138371,-0.003 10.831497,17.525728 37.237863 0 1 -0.137531,-0.005 10.831497,17.525728 37.237863 0 1 -0.136692,-0.007 10.831497,17.525728 37.237863 0 1 -0.135853,-0.009 10.831497,17.525728 37.237863 0 1 -0.135014,-0.0111 10.831497,17.525728 37.237863 0 1 -0.134176,-0.0131 10.831497,17.525728 37.237863 0 1 -0.133334,-0.015 10.831497,17.525728 37.237863 0 1 -0.132183,-0.0174 10.831497,17.525728 37.237863 0 1 -0.131244,-0.0186 10.831497,17.525728 37.237863 0 1 -0.130504,-0.0213 10.831497,17.525728 37.237863 0 1 -0.129253,-0.0229 10.831497,17.525728 37.237863 0 1 -0.128827,-0.0252 10.831497,17.525728 37.237863 0 1 -0.127161,-0.0266 10.831497,17.525728 37.237863 0 1 -0.126735,-0.0288 10.831497,17.525728 37.237863 0 1 -0.125583,-0.0312 10.831497,17.525728 37.237863 0 1 -0.124645,-0.0324 10.831497,17.525728 37.237863 0 1 -0.12308,-0.0345 10.831497,17.525728 37.237863 0 1 -0.122652,-0.0367 10.831497,17.525728 37.237863 0 1 -0.121091,-0.0388 10.831497,17.525728 37.237863 0 1 -0.120151,-0.0401 10.831497,17.525728 37.237863 0 1 -0.118999,-0.0424 10.831497,17.525728 37.237863 0 1 -0.117846,-0.0448 10.831497,17.525728 37.237863 0 1 -0.11691,-0.046 10.831497,17.525728 37.237863 0 1 -0.115758,-0.0484 10.831497,17.525728 37.237863 0 1 -0.114505,-0.05 10.831497,17.525728 37.237863 0 1 -0.113256,-0.0517 10.831497,17.525728 37.237863 0 1 -0.111682,-0.0537 10.831497,17.525728 37.237863 0 1 -0.110847,-0.0557 10.831497,17.525728 37.237863 0 1 -0.109705,-0.0581 10.831497,17.525728 37.237863 0 1 -0.108349,-0.059 10.831497,17.525728 37.237863 0 1 -0.107191,-0.0614 10.831497,17.525728 37.237863 0 1 -0.105637,-0.0634 10.831497,17.525728 37.237863 0 1 -0.104694,-0.0647 10.831497,17.525728 37.237863 0 1 -0.10282,-0.0671 10.831497,17.525728 37.237863 0 1 -0.102286,-0.0687 10.831497,17.525728 37.237863 0 1 -0.100322,-0.0704 10.831497,17.525728 37.237863 0 1 -0.09952,-0.0723 10.831497,17.525728 37.237863 0 1 -0.05997,-0.0449 10.831497,17.525728 37.237863 0 1 -0.09727,-0.0753 10.831497,17.525728 37.237863 0 1 -0.09531,-0.077 10.831497,17.525728 37.237863 0 1 -0.09407,-0.0786 10.831497,17.525728 37.237863 0 1 -0.09322,-0.0806 10.831497,17.525728 37.237863 0 1 -0.09124,-0.0824 10.831497,17.525728 37.237863 0 1 -0.08999,-0.084 10.831497,17.525728 37.237863 0 1 -0.08875,-0.0856 10.831497,17.525728 37.237863 0 1 -0.0875,-0.0873 10.831497,17.525728 37.237863 0 1 -0.08552,-0.089 10.831497,17.525728 37.237863 0 1 -0.08396,-0.0911 10.831497,17.525728 37.237863 0 1 -0.08302,-0.0923 10.831497,17.525728 37.237863 0 1 -0.08145,-0.0944 10.831497,17.525728 37.237863 0 1 -0.07948,-0.0961 10.831497,17.525728 37.237863 0 1 -0.07813,-0.097 10.831497,17.525728 37.237863 0 1 -0.07698,-0.0994 10.831497,17.525728 37.237863 0 1 -0.07532,-0.10074 10.831497,17.525728 37.237863 0 1 -0.07335,-0.10248 10.831497,17.525728 37.237863 0 1 -0.07241,-0.10372 10.831497,17.525728 37.237863 0 1 -0.07043,-0.10546 10.831497,17.525728 37.237863 0 1 -0.06887,-0.10752 10.831497,17.525728 37.237863 0 1 -0.06752,-0.10844 10.831497,17.525728 37.237863 0 1 -0.06595,-0.11049 10.831497,17.525728 37.237863 0 1 -0.06429,-0.11183 10.831497,17.525728 37.237863 0 1 -0.06263,-0.11316 10.831497,17.525728 37.237863 0 1 -0.06097,-0.1145 10.831497,17.525728 37.237863 0 1 -0.0594,-0.11655 10.831497,17.525728 37.237863 0 1 -0.05806,-0.11748 10.831497,17.525728 37.237863 0 1 -0.05608,-0.11921 10.831497,17.525728 37.237863 0 1 -0.05442,-0.12056 10.831497,17.525728 37.237863 0 1 -0.05275,-0.12188 10.831497,17.525728 37.237863 0 1 -0.0515,-0.12353 10.831497,17.525728 37.237863 0 1 -0.04912,-0.12496 10.831497,17.525728 37.237863 0 1 -0.04818,-0.1262 10.831497,17.525728 37.237863 0 1 -0.04621,-0.12794 10.831497,17.525728 37.237863 0 1 -0.04444,-0.12855 10.831497,17.525728 37.237863 0 1 -0.04288,-0.1306 10.831497,17.525728 37.237863 0 1 -0.04112,-0.13122 10.831497,17.525728 37.237863 0 1 -0.03987,-0.13286 10.831497,17.525728 37.237863 0 1 -0.03748,-0.13429 10.831497,17.525728 37.237863 0 1 -0.03613,-0.13521 10.831497,17.525728 37.237863 0 1 -0.03447,-0.13655 10.831497,17.525728 37.237863 0 1 -0.0325,-0.13829 10.831497,17.525728 37.237863 0 1 -0.03073,-0.1389 10.831497,17.525728 37.237863 0 1 -0.02949,-0.14055 10.831497,17.525728 37.237863 0 1 -0.02731,-0.14084 10.831497,17.525728 37.237863 0 1 -0.02575,-0.1429 10.831497,17.525728 37.237863 0 1 -0.02399,-0.1435 10.831497,17.525728 37.237863 0 1 -0.02232,-0.14485 10.831497,17.525728 37.237863 0 1 -0.02066,-0.14617 10.831497,17.525728 37.237863 0 1 -0.0189,-0.14678 10.831497,17.525728 37.237863 0 1 -0.01724,-0.14811 10.831497,17.525728 37.237863 0 1 -0.01517,-0.14914 10.831497,17.525728 37.237863 0 1 -0.0135,-0.15047 10.831497,17.525728 37.237863 0 1 -0.01174,-0.15107 10.831497,17.525728 37.237863 0 1 -0.01039,-0.15201 10.831497,17.525728 37.237863 0 1 -0.0083,-0.15301 10.831497,17.525728 37.237863 0 1 -0.0062,-0.15404 10.831497,17.525728 37.237863 0 1 -0.0049,-0.15496 10.831497,17.525728 37.237863 0 1 -0.0031,-0.15557 10.831497,17.525728 37.237863 0 1 -0.0015,-0.1569 10.831497,17.525728 37.237863 0 1 5.99e-4,-0.15793 10.831497,17.525728 37.237863 0 1 0.002,-0.15812 10.831497,17.525728 37.237863 0 1 0.0041,-0.15914 10.831497,17.525728 37.237863 0 1 0.0058,-0.16047 10.831497,17.525728 37.237863 0 1 0.0072,-0.16067 10.831497,17.525728 37.237863 0 1 0.0093,-0.16169 10.831497,17.525728 37.237863 0 1 0.01107,-0.1623 10.831497,17.525728 37.237863 0 1 0.01283,-0.16291 10.831497,17.525728 37.237863 0 1 0.01418,-0.16383 10.831497,17.525728 37.237863 0 1 0.01666,-0.16454 10.831497,17.525728 37.237863 0 1 0.0177,-0.16504 10.831497,17.525728 37.237863 0 1 0.01978,-0.16607 10.831497,17.525728 37.237863 0 1 0.02163,-0.16595 10.831497,17.525728 37.237863 0 1 0.02298,-0.16688 10.831497,17.525728 37.237863 0 1 0.02506,-0.16789 10.831497,17.525728 37.237863 0 1 0.02651,-0.16809 10.831497,17.525728 37.237863 0 1 0.02868,-0.16839 10.831497,17.525728 37.237863 0 1 0.03003,-0.16931 10.831497,17.525728 37.237863 0 1 0.03147,-0.16951 10.831497,17.525728 37.237863 0 1 0.03365,-0.1698 10.831497,17.525728 37.237863 0 1 0.035,-0.17073 10.831497,17.525728 37.237863 0 1 0.03717,-0.17102 10.831497,17.525728 37.237863 0 1 0.03862,-0.17122 10.831497,17.525728 37.237863 0 1 0.04038,-0.17182 10.831497,17.525728 37.237863 0 1 0.04224,-0.17171 10.831497,17.525728 37.237863 0 1 0.04359,-0.17264 10.831497,17.525728 37.237863 0 1 0.04545,-0.17251 10.831497,17.525728 37.237863 0 1 0.04721,-0.17313 10.831497,17.525728 37.237863 0 1 0.04866,-0.17332 10.831497,17.525728 37.237863 0 1 0.05052,-0.17321 10.831497,17.525728 37.237863 0 1 0.05186,-0.17413 10.831497,17.525728 37.237863 0 1 0.05414,-0.1737 10.831497,17.525728 37.237863 0 1 0.05517,-0.17422 10.831497,17.525728 37.237863 0 1 0.05703,-0.1741 10.831497,17.525728 37.237863 0 1 0.05848,-0.17429 10.831497,17.525728 37.237863 0 1 0.06024,-0.1749 10.831497,17.525728 37.237863 0 1 0.06179,-0.17438 10.831497,17.525728 37.237863 0 1 0.06365,-0.17426 10.831497,17.525728 37.237863 0 1 0.065,-0.17518 10.831497,17.525728 37.237863 0 1 0.06654,-0.17466 10.831497,17.525728 37.237863 0 1 0.06841,-0.17454 10.831497,17.525728 37.237863 0 1 0.06985,-0.17474 10.831497,17.525728 37.237863 0 1 0.0714,-0.17421 10.831497,17.525728 37.237863 0 1 0.07316,-0.17482 10.831497,17.525728 37.237863 0 1 0.0743,-0.1746 10.831497,17.525728 37.237863 0 1 0.07584,-0.17408 10.831497,17.525728 37.237863 0 1 0.07729,-0.17428 10.831497,17.525728 37.237863 0 1 0.07915,-0.17416 10.831497,17.525728 37.237863 0 1 0.0807,-0.17364 10.831497,17.525728 37.237863 0 1 0.08215,-0.17383 10.831497,17.525728 37.237863 0 1 0.08369,-0.17331 10.831497,17.525728 37.237863 0 1 0.08483,-0.17309 10.831497,17.525728 37.237863 0 1 0.08628,-0.17328 10.831497,17.525728 37.237863 0 1 0.08824,-0.17246 10.831497,17.525728 37.237863 0 1 0.08937,-0.17223 10.831497,17.525728 37.237863 0 1 0.09051,-0.17202 10.831497,17.525728 37.237863 0 1 0.09205,-0.1715 10.831497,17.525728 37.237863 0 1 0.09391,-0.17138 10.831497,17.525728 37.237863 0 1 0.09474,-0.17075 10.831497,17.525728 37.237863 0 1 0.09628,-0.17023 10.831497,17.525728 37.237863 0 1 0.09815,-0.1701 10.831497,17.525728 37.237863 0 1 0.09898,-0.16948 10.831497,17.525728 37.237863 0 1 0.100509,-0.16896 10.831497,17.525728 37.237863 0 1 0.10133,-0.16834 10.831497,17.525728 37.237863 0 1 0.1036,-0.16791 10.831497,17.525728 37.237863 0 1 0.104021,-0.1676 10.831497,17.525728 37.237863 0 1 0.105976,-0.16675 10.831497,17.525728 37.237863 0 1 0.106798,-0.16613 10.831497,17.525728 37.237863 0 1 0.108353,-0.1656 10.831497,17.525728 37.237863 0 1 0.109175,-0.16497 10.831497,17.525728 37.237863 0 1 0.11113,-0.16413 10.831497,17.525728 37.237863 0 1 0.111952,-0.16351 10.831497,17.525728 37.237863 0 1 0.112774,-0.16289 10.831497,17.525728 37.237863 0 1 0.114329,-0.16235 10.831497,17.525728 37.237863 0 1 0.115551,-0.16143 10.831497,17.525728 37.237863 0 1 0.116794,-0.16048 10.831497,17.525728 37.237863 0 1 0.117615,-0.15985 10.831497,17.525728 37.237863 0 1 0.118815,-0.15895 10.831497,17.525728 37.237863 0 1 0.0738,-0.0971 10.831497,17.525728 37.237863 0 1 0.120501,-0.15766 10.831497,17.525728 37.237863 0 1 0.121765,-0.1567 10.831497,17.525728 37.237863 0 1 0.122965,-0.15579 10.831497,17.525728 37.237863 0 1 0.123787,-0.15516 10.831497,17.525728 37.237863 0 1 0.125008,-0.15424 10.831497,17.525728 37.237863 0 1 0.126252,-0.15329 10.831497,17.525728 37.237863 0 1 0.127182,-0.15194 10.831497,17.525728 37.237863 0 1 0.128003,-0.15131 10.831497,17.525728 37.237863 0 1 0.129224,-0.15038 10.831497,17.525728 37.237863 0 1 0.129734,-0.14935 10.831497,17.525728 37.237863 0 1 0.130664,-0.14799 10.831497,17.525728 37.237863 0 1 0.131885,-0.14706 10.831497,17.525728 37.237863 0 1 0.133128,-0.14611 10.831497,17.525728 37.237863 0 1 0.133637,-0.14509 10.831497,17.525728 37.237863 0 1 0.134567,-0.14372 10.831497,17.525728 37.237863 0 1 0.135075,-0.14269 10.831497,17.525728 37.237863 0 1 0.136719,-0.14144 10.831497,17.525728 37.237863 0 1 0.136828,-0.14071 10.831497,17.525728 37.237863 0 1 0.137825,-0.13865 10.831497,17.525728 37.237863 0 1 0.138658,-0.13802 10.831497,17.525728 37.237863 0 1 0.139169,-0.13698 10.831497,17.525728 37.237863 0 1 0.1405,-0.13532 10.831497,17.525728 37.237863 0 1 0.141012,-0.13428 10.831497,17.525728 37.237863 0 1 0.141524,-0.13325 10.831497,17.525728 37.237863 0 1 0.142443,-0.1319 10.831497,17.525728 37.237863 0 1 0.143052,-0.13013 10.831497,17.525728 37.237863 0 1 0.143563,-0.1291 10.831497,17.525728 37.237863 0 1 0.144483,-0.12775 10.831497,17.525728 37.237863 0 1 0.144993,-0.12671 10.831497,17.525728 37.237863 0 1 0.145605,-0.12495 10.831497,17.525728 37.237863 0 1 0.14621,-0.12319 10.831497,17.525728 37.237863 0 1 0.146723,-0.12216 10.831497,17.525728 37.237863 0 1 0.14723,-0.12111 10.831497,17.525728 37.237863 0 1 0.147843,-0.11936 10.831497,17.525728 37.237863 0 1 0.148448,-0.11759 10.831497,17.525728 37.237863 0 1 0.148959,-0.11656 10.831497,17.525728 37.237863 0 1 0.149158,-0.11511 10.831497,17.525728 37.237863 0 1 0.149767,-0.11335 10.831497,17.525728 37.237863 0 1 0.150372,-0.11159 10.831497,17.525728 37.237863 0 1 0.150888,-0.11055 10.831497,17.525728 37.237863 0 1 0.150767,-0.10869 10.831497,17.525728 37.237863 0 1 0.15128,-0.10765 10.831497,17.525728 37.237863 0 1 0.151577,-0.10549 10.831497,17.525728 37.237863 0 1 0.152496,-0.10413 10.831497,17.525728 37.237863 0 1 0.152382,-0.10227 10.831497,17.525728 37.237863 0 1 0.152892,-0.10124 10.831497,17.525728 37.237863 0 1 0.152777,-0.0994 10.831497,17.525728 37.237863 0 1 0.153385,-0.0976 10.831497,17.525728 37.237863 0 1 0.153584,-0.0962 10.831497,17.525728 37.237863 0 1 0.153466,-0.0943 10.831497,17.525728 37.237863 0 1 0.154079,-0.0925 10.831497,17.525728 37.237863 0 1 0.154273,-0.0911 10.831497,17.525728 37.237863 0 1 0.154159,-0.0892 10.831497,17.525728 37.237863 0 1 0.154356,-0.0878 10.831497,17.525728 37.237863 0 1 0.154652,-0.0856 10.831497,17.525728 37.237863 0 1 0.15485,-0.0842 10.831497,17.525728 37.237863 0 1 0.154735,-0.0823 10.831497,17.525728 37.237863 0 1 0.15493,-0.0809 10.831497,17.525728 37.237863 0 1 0.154816,-0.079 10.831497,17.525728 37.237863 0 1 0.154701,-0.0772 10.831497,17.525728 37.237863 0 1 0.154899,-0.0757 10.831497,17.525728 37.237863 0 1 0.154882,-0.0731 10.831497,17.525728 37.237863 0 1 0.154667,-0.072 10.831497,17.525728 37.237863 0 1 0.154964,-0.0698 10.831497,17.525728 37.237863 0 1 0.15485,-0.0679 10.831497,17.525728 37.237863 0 1 0.154635,-0.0668 10.831497,17.525728 37.237863 0 1 0.154618,-0.0642 10.831497,17.525728 37.237863 0 1 0.154091,-0.0627 10.831497,17.525728 37.237863 0 1 0.154386,-0.0605 10.831497,17.525728 37.237863 0 1 0.153863,-0.0589 10.831497,17.525728 37.237863 0 1 0.154058,-0.0575 10.831497,17.525728 37.237863 0 1 0.153317,-0.0548 10.831497,17.525728 37.237863 0 1 0.153514,-0.0534 10.831497,17.525728 37.237863 0 1 0.1534,-0.0515 10.831497,17.525728 37.237863 0 1 0.15256,-0.0496 10.831497,17.525728 37.237863 0 1 0.152858,-0.0474 10.831497,17.525728 37.237863 0 1 0.152329,-0.0458 10.831497,17.525728 37.237863 0 1 0.1519,-0.0436 10.831497,17.525728 37.237863 0 1 0.151377,-0.042 10.831497,17.525728 37.237863 0 1 0.151258,-0.0402 10.831497,17.525728 37.237863 0 1 0.150833,-0.0379 10.831497,17.525728 37.237863 0 1 0.150715,-0.036 10.831497,17.525728 37.237863 0 1 0.149878,-0.0341 10.831497,17.525728 37.237863 0 1 0.14935,-0.0325 10.831497,17.525728 37.237863 0 1 0.149334,-0.0299 10.831497,17.525728 37.237863 0 1 0.148395,-0.0287 10.831497,17.525728 37.237863 0 1 0.148379,-0.0261 10.831497,17.525728 37.237863 0 1 0.14754,-0.0242 10.831497,17.525728 37.237863 0 1 0.147011,-0.0226 10.831497,17.525728 37.237863 0 1 0.146174,-0.0207 10.831497,17.525728 37.237863 0 1 0.146157,-0.0181 10.831497,17.525728 37.237863 0 1 0.145219,-0.0168 10.831497,17.525728 37.237863 0 1 0.144477,-0.0142 10.831497,17.525728 37.237863 0 1 0.143953,-0.0126 10.831497,17.525728 37.237863 0 1 0.143423,-0.0111 10.831497,17.525728 37.237863 0 1 0.142683,-0.008 10.831497,17.525728 37.237863 0 1 0.141845,-0.006 10.831497,17.525728 37.237863 0 1 0.141319,-0.005 10.831497,17.525728 37.237863 0 1 0.140888,-0.003 10.831497,17.525728 37.237863 0 1 0.139638,-9.6e-4 10.831497,17.525728 37.237863 0 1 0.139212,10e-4 10.831497,17.525728 37.237863 0 1 0.138371,0.003 10.831497,17.525728 37.237863 0 1 0.13722,0.006 10.831497,17.525728 37.237863 0 1 0.136692,0.007 10.831497,17.525728 37.237863 0 1 0.135853,0.009 10.831497,17.525728 37.237863 0 1 0.135014,0.0111 10.831497,17.525728 37.237863 0 1 0.134174,0.0131 10.831497,17.525728 37.237863 0 1 0.133334,0.015 10.831497,17.525728 37.237863 0 1 0.132183,0.0174 10.831497,17.525728 37.237863 0 1 0.131245,0.0186 10.831497,17.525728 37.237863 0 1 0.130505,0.0213 10.831497,17.525728 37.237863 0 1 0.129251,0.023 10.831497,17.525728 37.237863 0 1 0.128414,0.0249 10.831497,17.525728 37.237863 0 1 0.127574,0.0269 10.831497,17.525728 37.237863 0 1 0.126735,0.0288 10.831497,17.525728 37.237863 0 1 0.125897,0.0308 10.831497,17.525728 37.237863 0 1 0.124331,0.0328 10.831497,17.525728 37.237863 0 1 0.123082,0.0345 10.831497,17.525728 37.237863 0 1 0.122652,0.0367 10.831497,17.525728 37.237863 0 1 0.121091,0.0388 10.831497,17.525728 37.237863 0 1 0.120149,0.04 10.831497,17.525728 37.237863 0 1 0.119,0.0424 10.831497,17.525728 37.237863 0 1 0.11816,0.0444 10.831497,17.525728 37.237863 0 1 0.116597,0.0464 10.831497,17.525728 37.237863 0 1 0.115758,0.0484 10.831497,17.525728 37.237863 0 1 0.114093,0.0497 10.831497,17.525728 37.237863 0 1 0.113668,0.052 10.831497,17.525728 37.237863 0 1 0.111682,0.0538 10.831497,17.525728 37.237863 0 1 0.110847,0.0557 10.831497,17.525728 37.237863 0 1 0.110009,0.0577 10.831497,17.525728 37.237863 0 1 0.108045,0.0594 10.831497,17.525728 37.237863 0 1 0.107207,0.0613 10.831497,17.525728 37.237863 0 1 0.105638,0.0634 10.831497,17.525728 37.237863 0 1 0.104693,0.0647 10.831497,17.525728 37.237863 0 1 0.10282,0.0671 10.831497,17.525728 37.237863 0 1 0.102302,0.0687 10.831497,17.525728 37.237863 0 1 0.100322,0.0704 10.831497,17.525728 37.237863 0 1 0.09952,0.0723 10.831497,17.525728 37.237863 0 1 0.05998,0.0449 z"
         style="fill:#f20d0d;fill-opacity:1;stroke-width:0.500999"
         id="path2064" />
      <path
         id="path2053"
         style="fill:#e5e5e5;fill-opacity:1;stroke-width:0.500999"
         d="m 116.52209,62.628736 c -5.04599,-0.0472 -15.92783,9.421492 -25.88938,22.527307 -0.407831,0.536673 -0.811601,1.076238 -1.210778,1.617988 C 89.024988,86.245592 88.623639,85.719304 88.218387,85.195834 76.657969,70.271935 64.261978,60.517006 60.531705,63.408016 c -0.005,0.0039 -0.01,0.0079 -0.01497,0.01188 -3.698997,2.918819 2.649312,17.34232 14.190866,32.241958 11.058458,13.694876 18.81515,13.858856 29.531019,-0.16433 11.42289,-15.028572 17.63709,-29.526505 13.87977,-32.382002 -0.005,-0.0038 -0.0103,-0.0076 -0.0155,-0.01138 -0.41574,-0.310254 -0.94485,-0.469384 -1.58079,-0.475425 z"
         sodipodi:nodetypes="ccccccccccc" />
    </g>
  </g>
</svg>
